<mxfile host="app.diagrams.net" modified="2024-01-29T04:22:16.947Z" agent="Mozilla/5.0 (X11; Linux x86_64; rv:122.0) Gecko/20100101 Firefox/122.0" version="23.0.2" etag="Ln_ScQhDXSQvG42tx7or" type="github">
  <diagram name="第 1 页" id="GuWWn8SWaZEqCYZ98QDP">
    <mxGraphModel>
      <root>
        <mxCell id="0" />
        <mxCell id="1" parent="0" />
      </root>
    </mxGraphModel>
  </diagram>
</mxfile>
